<svg width="55" height="55" viewBox="0 0 55 55" fill="none" xmlns="http://www.w3.org/2000/svg">
<path d="M50.4168 17.8978V37.102C50.4168 43.5416 47.4606 47.9645 42.2585 49.6374C40.746 50.1645 39.0043 50.4166 37.1022 50.4166H17.8981C15.996 50.4166 14.2543 50.1645 12.7418 49.6374C7.53975 47.9645 4.5835 43.5416 4.5835 37.102V17.8978C4.5835 9.55617 9.55641 4.58325 17.8981 4.58325H37.1022C45.4439 4.58325 50.4168 9.55617 50.4168 17.8978Z" fill="#B1BBFF"/>
<path d="M42.2559 49.6351C40.7434 50.1622 39.0018 50.4143 37.0997 50.4143H17.8955C15.9934 50.4143 14.2518 50.1622 12.7393 49.6351C13.5413 43.5851 19.8663 38.8872 27.4976 38.8872C35.1288 38.8872 41.4538 43.5851 42.2559 49.6351ZM35.7086 26.5374C35.7086 31.0749 32.042 34.7645 27.5045 34.7645C22.967 34.7645 19.3003 31.0749 19.3003 26.5374C19.3003 21.9999 22.967 18.3333 27.5045 18.3333C32.042 18.3333 35.7086 21.9999 35.7086 26.5374Z" fill="#FF2660"/>
</svg>
